<svg width="232" height="90" viewBox="0 0 232 90" fill="none" xmlns="http://www.w3.org/2000/svg">
  <path d="M229.362 75.0855C229.721 74.248 230.389 73.8293 231.365 73.8293V74.4036C230.797 74.4036 230.321 74.587 229.937 74.9539C229.554 75.3128 229.362 75.8512 229.362 76.5691V79.8951H228.762V73.913H229.362V75.0855Z" fill="#408CFB"/>
  <path d="M224.176 80.0267C223.296 80.0267 222.549 79.7276 221.933 79.1294C221.325 78.5232 221.022 77.7815 221.022 76.9041C221.022 76.0267 221.325 75.289 221.933 74.6907C222.549 74.0846 223.296 73.7815 224.176 73.7815C225.048 73.7815 225.787 74.0846 226.395 74.6907C227.011 75.289 227.318 76.0267 227.318 76.9041C227.318 77.7815 227.011 78.5232 226.395 79.1294C225.787 79.7276 225.048 80.0267 224.176 80.0267ZM222.365 78.7107C222.861 79.2052 223.464 79.4524 224.176 79.4524C224.888 79.4524 225.487 79.2052 225.975 78.7107C226.463 78.2162 226.707 77.614 226.707 76.9041C226.707 76.1942 226.463 75.592 225.975 75.0975C225.487 74.603 224.888 74.3558 224.176 74.3558C223.464 74.3558 222.861 74.603 222.365 75.0975C221.877 75.592 221.633 76.1942 221.633 76.9041C221.633 77.614 221.877 78.2162 222.365 78.7107Z" fill="#408CFB"/>
  <path d="M220.354 74.4992H218.567V78.3875C218.567 78.7305 218.631 78.9778 218.759 79.1293C218.887 79.2809 219.082 79.3686 219.346 79.3925C219.61 79.4085 219.946 79.3965 220.354 79.3566V79.895C219.546 80.0147 218.943 79.9588 218.543 79.7275C218.151 79.4962 217.955 79.0496 217.955 78.3875V74.4992H216.636V73.913H217.955V72.4175L218.567 72.238V73.913H220.354V74.4992Z" fill="#408CFB"/>
  <path d="M213.307 80.0267C212.403 80.0267 211.652 79.7276 211.052 79.1294C210.452 78.5312 210.152 77.7894 210.152 76.9041C210.152 76.0188 210.452 75.277 211.052 74.6788C211.652 74.0806 212.403 73.7815 213.307 73.7815C213.891 73.7815 214.418 73.9211 214.89 74.2002C215.362 74.4714 215.706 74.8423 215.921 75.3129L215.43 75.6C215.254 75.2172 214.974 74.9141 214.59 74.6907C214.214 74.4674 213.787 74.3558 213.307 74.3558C212.587 74.3558 211.984 74.603 211.496 75.0975C211.008 75.5841 210.764 76.1863 210.764 76.9041C210.764 77.6219 211.008 78.2281 211.496 78.7226C211.984 79.2092 212.587 79.4524 213.307 79.4524C213.787 79.4524 214.214 79.3408 214.59 79.1175C214.974 78.8941 215.266 78.591 215.466 78.2082L215.969 78.5073C215.73 78.9699 215.37 79.3408 214.89 79.6199C214.418 79.8911 213.891 80.0267 213.307 80.0267Z" fill="#408CFB"/>
  <path d="M205.975 80.0267C205.095 80.0267 204.348 79.7276 203.732 79.1294C203.124 78.5232 202.82 77.7815 202.82 76.9041C202.82 76.0267 203.124 75.289 203.732 74.6907C204.348 74.0846 205.095 73.7815 205.975 73.7815C206.846 73.7815 207.586 74.0846 208.194 74.6907C208.809 75.289 209.117 76.0267 209.117 76.9041C209.117 77.7815 208.809 78.5232 208.194 79.1294C207.586 79.7276 206.846 80.0267 205.975 80.0267ZM204.164 78.7107C204.659 79.2052 205.263 79.4524 205.975 79.4524C206.686 79.4524 207.286 79.2052 207.774 78.7107C208.262 78.2162 208.505 77.614 208.505 76.9041C208.505 76.1942 208.262 75.592 207.774 75.0975C207.286 74.603 206.686 74.3558 205.975 74.3558C205.263 74.3558 204.659 74.603 204.164 75.0975C203.676 75.592 203.432 76.1942 203.432 76.9041C203.432 77.614 203.676 78.2162 204.164 78.7107Z" fill="#408CFB"/>
  <path d="M200.787 71.5202H201.387V79.8951H200.787V78.5072C200.539 78.9778 200.187 79.3487 199.731 79.6199C199.284 79.8911 198.776 80.0267 198.208 80.0267C197.345 80.0267 196.609 79.7276 196.001 79.1294C195.402 78.5232 195.102 77.7814 195.102 76.904C195.102 76.0267 195.402 75.2889 196.001 74.6907C196.609 74.0845 197.345 73.7814 198.208 73.7814C198.776 73.7814 199.284 73.917 199.731 74.1882C200.187 74.4594 200.539 74.8303 200.787 75.3009V71.5202ZM196.433 78.7106C196.929 79.2051 197.533 79.4524 198.244 79.4524C198.956 79.4524 199.555 79.2051 200.043 78.7106C200.539 78.2161 200.787 77.6139 200.787 76.904C200.787 76.1942 200.539 75.592 200.043 75.0975C199.555 74.603 198.956 74.3557 198.244 74.3557C197.533 74.3557 196.929 74.603 196.433 75.0975C195.945 75.592 195.701 76.1942 195.701 76.904C195.701 77.6139 195.945 78.2161 196.433 78.7106Z" fill="#408CFB"/>
  <path d="M190.576 73.913H191.223L188.633 80.4454C188.401 81.0356 188.073 81.4982 187.649 81.8332C187.225 82.1762 186.762 82.3277 186.258 82.2878V81.7255C186.642 81.7574 186.986 81.6458 187.289 81.3905C187.601 81.1433 187.853 80.7883 188.045 80.3257L188.177 80.0027L185.418 73.913H186.066L188.489 79.237L190.576 73.913Z" fill="#408CFB"/>
  <path d="M184.63 74.4992H182.843V78.3875C182.843 78.7305 182.907 78.9778 183.035 79.1293C183.163 79.2809 183.359 79.3686 183.622 79.3925C183.886 79.4085 184.222 79.3965 184.63 79.3566V79.895C183.822 80.0147 183.219 79.9588 182.819 79.7275C182.427 79.4962 182.231 79.0496 182.231 78.3875V74.4992H180.912V73.913H182.231V72.4175L182.843 72.238V73.913H184.63V74.4992Z" fill="#408CFB"/>
  <path d="M179.107 73.913H179.707V79.895H179.107V78.7584C178.676 79.6039 177.96 80.0266 176.96 80.0266C176.249 80.0266 175.681 79.8113 175.257 79.3806C174.841 78.9419 174.634 78.3596 174.634 77.6338V73.913H175.245V77.6338C175.245 78.1921 175.397 78.6348 175.701 78.9618C176.013 79.2888 176.449 79.4524 177.008 79.4524C177.624 79.4524 178.128 79.249 178.52 78.8422C178.911 78.4354 179.107 77.8452 179.107 77.0715V73.913Z" fill="#408CFB"/>
  <path d="M172.348 71.5202H172.948V79.8951H172.348V78.5072C172.101 78.9778 171.749 79.3487 171.293 79.6199C170.845 79.8911 170.338 80.0267 169.77 80.0267C168.906 80.0267 168.171 79.7276 167.563 79.1294C166.963 78.5232 166.663 77.7814 166.663 76.9041C166.663 76.0267 166.963 75.2889 167.563 74.6907C168.171 74.0845 168.906 73.7814 169.77 73.7814C170.338 73.7814 170.845 73.917 171.293 74.1882C171.749 74.4594 172.101 74.8303 172.348 75.3009V71.5202ZM167.995 78.7106C168.49 79.2051 169.094 79.4524 169.806 79.4524C170.517 79.4524 171.117 79.2051 171.605 78.7106C172.101 78.2161 172.348 77.6139 172.348 76.9041C172.348 76.1942 172.101 75.592 171.605 75.0975C171.117 74.603 170.517 74.3557 169.806 74.3557C169.094 74.3557 168.49 74.603 167.995 75.0975C167.507 75.592 167.263 76.1942 167.263 76.9041C167.263 77.6139 167.507 78.2161 167.995 78.7106Z" fill="#408CFB"/>
  <path d="M230.882 59.4605H231.529L228.939 65.9929C228.707 66.5831 228.379 67.0457 227.955 67.3807C227.532 67.7237 227.068 67.8752 226.564 67.8354V67.273C226.948 67.3049 227.292 67.1933 227.595 66.9381C227.907 66.6908 228.159 66.3359 228.351 65.8732L228.483 65.5502L225.724 59.4605H226.372L228.795 64.7845L230.882 59.4605Z" fill="#408CFB"/>
  <path d="M222.174 59.3289C223.038 59.3289 223.769 59.632 224.369 60.2382C224.977 60.8364 225.281 61.5742 225.281 62.4515C225.281 63.3289 224.977 64.0707 224.369 64.6768C223.769 65.275 223.038 65.5741 222.174 65.5741C221.607 65.5741 221.095 65.4385 220.639 65.1674C220.191 64.8962 219.843 64.5253 219.596 64.0547V65.4425H218.996V57.0677H219.596V60.8483C219.843 60.3777 220.191 60.0069 220.639 59.7357C221.095 59.4645 221.607 59.3289 222.174 59.3289ZM220.327 64.2581C220.823 64.7526 221.427 64.9999 222.138 64.9999C222.85 64.9999 223.45 64.7526 223.937 64.2581C224.433 63.7636 224.681 63.1614 224.681 62.4515C224.681 61.7416 224.433 61.1395 223.937 60.6449C223.45 60.1504 222.85 59.9032 222.138 59.9032C221.427 59.9032 220.823 60.1504 220.327 60.6449C219.839 61.1395 219.596 61.7416 219.596 62.4515C219.596 63.1614 219.839 63.7636 220.327 64.2581Z" fill="#408CFB"/>
  <path d="M213.357 57.0677H213.957V65.4425H213.357V64.0547C213.109 64.5253 212.757 64.8962 212.302 65.1674C211.854 65.4385 211.346 65.5741 210.778 65.5741C209.915 65.5741 209.179 65.275 208.572 64.6768C207.972 64.0707 207.672 63.3289 207.672 62.4515C207.672 61.5742 207.972 60.8364 208.572 60.2382C209.179 59.632 209.915 59.3289 210.778 59.3289C211.346 59.3289 211.854 59.4645 212.302 59.7357C212.757 60.0069 213.109 60.3777 213.357 60.8483V57.0677ZM209.003 64.2581C209.499 64.7526 210.103 64.9999 210.814 64.9999C211.526 64.9999 212.126 64.7526 212.613 64.2581C213.109 63.7636 213.357 63.1614 213.357 62.4515C213.357 61.7416 213.109 61.1395 212.613 60.6449C212.126 60.1504 211.526 59.9032 210.814 59.9032C210.103 59.9032 209.499 60.1504 209.003 60.6449C208.516 61.1395 208.272 61.7416 208.272 62.4515C208.272 63.1614 208.516 63.7636 209.003 64.2581Z" fill="#408CFB"/>
  <path d="M203.704 59.3289C204.583 59.3289 205.295 59.64 205.839 60.2621C206.39 60.8843 206.666 61.6221 206.666 62.4755C206.666 62.5074 206.662 62.5553 206.654 62.6191C206.654 62.6829 206.654 62.7307 206.654 62.7626H201.221C201.293 63.4326 201.561 63.975 202.025 64.3897C202.496 64.7965 203.076 64.9999 203.764 64.9999C204.244 64.9999 204.663 64.9002 205.023 64.7008C205.383 64.5014 205.655 64.2382 205.839 63.9112L206.366 64.2223C206.119 64.637 205.767 64.968 205.311 65.2153C204.855 65.4545 204.336 65.5742 203.752 65.5742C202.832 65.5742 202.077 65.2831 201.485 64.7008C200.893 64.1106 200.597 63.3608 200.597 62.4516C200.597 61.5583 200.885 60.8165 201.461 60.2263C202.045 59.6281 202.792 59.3289 203.704 59.3289ZM203.704 59.9032C203.024 59.9032 202.457 60.1146 202.001 60.5373C201.545 60.96 201.285 61.5064 201.221 62.1764H206.043C205.979 61.4665 205.723 60.9122 205.275 60.5134C204.835 60.1066 204.312 59.9032 203.704 59.9032Z" fill="#408CFB"/>
  <path d="M198.15 60.633C198.509 59.7955 199.177 59.3768 200.152 59.3768V59.951C199.585 59.951 199.109 60.1345 198.725 60.5014C198.341 60.8603 198.15 61.3987 198.15 62.1165V65.4425H197.55V59.4605H198.15V60.633Z" fill="#408CFB"/>
  <path d="M193.186 59.3289C194.066 59.3289 194.777 59.64 195.321 60.2621C195.873 60.8843 196.149 61.6221 196.149 62.4755C196.149 62.5074 196.145 62.5553 196.137 62.6191C196.137 62.6829 196.137 62.7307 196.137 62.7626H190.703C190.775 63.4326 191.043 63.975 191.507 64.3897C191.979 64.7965 192.558 64.9999 193.246 64.9999C193.726 64.9999 194.146 64.9002 194.505 64.7008C194.865 64.5014 195.137 64.2382 195.321 63.9112L195.849 64.2223C195.601 64.637 195.249 64.968 194.793 65.2153C194.337 65.4545 193.818 65.5742 193.234 65.5742C192.315 65.5742 191.559 65.2831 190.967 64.7008C190.376 64.1106 190.08 63.3608 190.08 62.4516C190.08 61.5583 190.368 60.8165 190.943 60.2263C191.527 59.6281 192.275 59.3289 193.186 59.3289ZM193.186 59.9032C192.506 59.9032 191.939 60.1146 191.483 60.5373C191.027 60.96 190.767 61.5064 190.703 62.1764H195.525C195.461 61.4665 195.205 60.9122 194.757 60.5134C194.317 60.1066 193.794 59.9032 193.186 59.9032Z" fill="#408CFB"/>
  <path d="M188.772 59.4605H189.408L187.513 65.4425H186.853L185.186 60.3459L183.519 65.4425H182.859L180.964 59.4605H181.6L183.195 64.6649L184.874 59.4605H185.498L187.177 64.6649L188.772 59.4605Z" fill="#408CFB"/>
  <path d="M177.141 65.5742C176.261 65.5742 175.514 65.2751 174.898 64.6769C174.29 64.0707 173.986 63.3289 173.986 62.4516C173.986 61.5742 174.29 60.8364 174.898 60.2382C175.514 59.632 176.261 59.3289 177.141 59.3289C178.012 59.3289 178.752 59.632 179.36 60.2382C179.975 60.8364 180.283 61.5742 180.283 62.4516C180.283 63.3289 179.975 64.0707 179.36 64.6769C178.752 65.2751 178.012 65.5742 177.141 65.5742ZM175.33 64.2581C175.825 64.7527 176.429 64.9999 177.141 64.9999C177.852 64.9999 178.452 64.7527 178.94 64.2581C179.428 63.7636 179.671 63.1614 179.671 62.4516C179.671 61.7417 179.428 61.1395 178.94 60.645C178.452 60.1505 177.852 59.9032 177.141 59.9032C176.429 59.9032 175.825 60.1505 175.33 60.645C174.842 61.1395 174.598 61.7417 174.598 62.4516C174.598 63.1614 174.842 63.7636 175.33 64.2581Z" fill="#408CFB"/>
  <path d="M169.842 59.3289C170.705 59.3289 171.437 59.632 172.037 60.2382C172.644 60.8364 172.948 61.5742 172.948 62.4516C172.948 63.3289 172.644 64.0707 172.037 64.6769C171.437 65.2751 170.705 65.5742 169.842 65.5742C169.274 65.5742 168.762 65.4386 168.307 65.1674C167.859 64.8962 167.511 64.5253 167.263 64.0548V67.8354H166.663V59.4606H167.263V60.8484C167.511 60.3778 167.859 60.0069 168.307 59.7357C168.762 59.4645 169.274 59.3289 169.842 59.3289ZM167.995 64.2581C168.49 64.7527 169.094 64.9999 169.806 64.9999C170.517 64.9999 171.117 64.7527 171.605 64.2581C172.101 63.7636 172.348 63.1614 172.348 62.4516C172.348 61.7417 172.101 61.1395 171.605 60.645C171.117 60.1505 170.517 59.9032 169.806 59.9032C169.094 59.9032 168.49 60.1505 167.995 60.645C167.507 61.1395 167.263 61.7417 167.263 62.4516C167.263 63.1614 167.507 63.7636 167.995 64.2581Z" fill="#408CFB"/>
  <path d="M155.971 55.7437H160.103V78.7574C160.103 82.3128 158.901 85.0674 156.499 87.0212C154.097 89.0071 151.214 90 147.851 90C145.161 90 142.838 89.4875 140.885 88.4625C138.931 87.4696 137.457 86.0283 136.464 84.1385L140.116 82.0725C141.429 84.7631 144.039 86.1083 147.947 86.1083C150.446 86.1083 152.399 85.4517 153.809 84.1385C155.25 82.8252 155.971 81.0315 155.971 78.7574V75.3462C153.857 78.5492 150.846 80.1507 146.938 80.1507C143.511 80.1507 140.612 78.9336 138.242 76.4993C135.872 74.065 134.687 71.1022 134.687 67.6109C134.687 64.1196 135.872 61.1728 138.242 58.7706C140.612 56.3363 143.511 55.1191 146.938 55.1191C150.878 55.1191 153.889 56.7046 155.971 59.8756V55.7437ZM141.317 73.7127C142.95 75.3462 144.984 76.163 147.419 76.163C149.853 76.163 151.887 75.3462 153.52 73.7127C155.154 72.0791 155.971 70.0452 155.971 67.6109C155.971 65.2086 155.154 63.1907 153.52 61.5572C151.887 59.9237 149.853 59.1069 147.419 59.1069C144.984 59.1069 142.95 59.9237 141.317 61.5572C139.683 63.1907 138.867 65.2086 138.867 67.6109C138.867 70.0452 139.683 72.0791 141.317 73.7127Z" fill="#408CFB"/>
  <path d="M122.798 55.1191C125.616 55.1191 127.875 56.016 129.572 57.8097C131.27 59.5713 132.119 61.9736 132.119 65.0165V79.7664H127.939V65.2567C127.939 63.3028 127.41 61.7974 126.353 60.7404C125.296 59.6514 123.839 59.1069 121.981 59.1069C119.899 59.1069 118.217 59.7635 116.936 61.0767C115.655 62.3579 115.014 64.3438 115.014 67.0344V79.7664H110.834V55.7437H115.014V59.203C116.712 56.4804 119.306 55.1191 122.798 55.1191Z" fill="#408CFB"/>
  <path d="M104.313 51.3716C103.513 51.3716 102.84 51.0993 102.296 50.5548C101.751 50.0103 101.479 49.3537 101.479 48.5849C101.479 47.8162 101.751 47.1596 102.296 46.6151C102.84 46.0385 103.513 45.7503 104.313 45.7503C105.082 45.7503 105.739 46.0385 106.283 46.6151C106.828 47.1596 107.1 47.8162 107.1 48.5849C107.1 49.3537 106.828 50.0103 106.283 50.5548C105.739 51.0993 105.082 51.3716 104.313 51.3716ZM102.199 79.7663V55.7437H106.379V79.7663H102.199Z" fill="#408CFB"/>
  <path d="M88.9652 55.1191C91.7839 55.1191 94.042 56.016 95.7396 57.8097C97.4372 59.5713 98.286 61.9736 98.286 65.0165V79.7664H94.1061V65.2567C94.1061 63.3028 93.5776 61.7974 92.5206 60.7404C91.4636 59.6514 90.0062 59.1069 88.1484 59.1069C86.0665 59.1069 84.3849 59.7635 83.1037 61.0767C81.8225 62.3579 81.1819 64.3438 81.1819 67.0344V79.7664H77.0019V55.7437H81.1819V59.203C82.8795 56.4804 85.4739 55.1191 88.9652 55.1191Z" fill="#408CFB"/>
  <path d="M67.3388 59.7795C68.7161 56.8007 71.2144 55.3113 74.8339 55.3113V59.6834C72.7839 59.5873 71.0223 60.1319 69.5489 61.317C68.0755 62.5021 67.3388 64.4079 67.3388 67.0344V79.7664H63.1589V55.7437H67.3388V59.7795Z" fill="#408CFB"/>
  <path d="M54.5678 55.7437H58.7477V79.7664H54.5678V75.6345C52.4858 78.8055 49.4589 80.3909 45.4872 80.3909C42.124 80.3909 39.2573 79.1738 36.8871 76.7395C34.5169 74.2732 33.3317 71.2784 33.3317 67.755C33.3317 64.2317 34.5169 61.2529 36.8871 58.8186C39.2573 56.3523 42.124 55.1191 45.4872 55.1191C49.4589 55.1191 52.4858 56.7046 54.5678 59.8756V55.7437ZM46.0157 76.3551C48.45 76.3551 50.4839 75.5384 52.1174 73.9048C53.751 72.2393 54.5678 70.1893 54.5678 67.755C54.5678 65.3207 53.751 63.2868 52.1174 61.6533C50.4839 59.9877 48.45 59.1549 46.0157 59.1549C43.6134 59.1549 41.5955 59.9877 39.962 61.6533C38.3284 63.2868 37.5117 65.3207 37.5117 67.755C37.5117 70.1893 38.3284 72.2393 39.962 73.9048C41.5955 75.5384 43.6134 76.3551 46.0157 76.3551Z" fill="#408CFB"/>
  <path d="M11.5658 69.6768C11.9822 71.8229 12.9591 73.4884 14.4965 74.6736C16.066 75.8587 17.9878 76.4512 20.262 76.4512C23.4329 76.4512 25.7391 75.2821 27.1805 72.9439L30.7358 74.9618C28.3976 78.5812 24.8743 80.3909 20.1659 80.3909C16.3543 80.3909 13.2474 79.2058 10.8451 76.8356C8.47485 74.4333 7.28974 71.4065 7.28974 67.755C7.28974 64.1356 8.45884 61.1248 10.797 58.7225C13.1352 56.3203 16.1621 55.1191 19.8776 55.1191C23.4009 55.1191 26.2676 56.3683 28.4777 58.8667C30.7198 61.333 31.8409 64.3118 31.8409 67.8031C31.8409 68.4117 31.7928 69.0362 31.6967 69.6768H11.5658ZM19.8776 59.0588C17.6355 59.0588 15.7777 59.6994 14.3043 60.9807C12.831 62.2298 11.9181 63.9114 11.5658 66.0254H27.6129C27.2606 63.7513 26.3637 62.0216 24.9224 60.8365C23.481 59.6514 21.7994 59.0588 19.8776 59.0588Z" fill="#408CFB"/>
  <path d="M0 79.7663V44.6933H4.17994V79.7663H0Z" fill="#408CFB"/>
  <path d="M222.208 15.0862H215.818V28.1065C215.818 29.2916 216.042 30.1404 216.49 30.6529C216.971 31.1334 217.692 31.3896 218.653 31.4216C219.613 31.4216 220.799 31.3896 222.208 31.3255V35.0731C218.556 35.5535 215.882 35.2653 214.184 34.2083C212.487 33.1192 211.638 31.0853 211.638 28.1065V15.0862H206.881V11.0504H211.638V5.57328L215.818 4.3241V11.0504H222.208V15.0862Z" fill="#408CFB"/>
  <path d="M198.913 15.0862C200.291 12.1074 202.789 10.618 206.408 10.618V14.9902C204.359 14.8941 202.597 15.4386 201.124 16.6237C199.65 17.8088 198.913 19.7146 198.913 22.3411V35.0731H194.733V11.0504H198.913V15.0862Z" fill="#408CFB"/>
  <path d="M188.028 32.0462C185.562 34.4805 182.567 35.6977 179.044 35.6977C175.52 35.6977 172.526 34.4805 170.059 32.0462C167.625 29.6119 166.408 26.6171 166.408 23.0617C166.408 19.5064 167.625 16.5116 170.059 14.0773C172.526 11.643 175.52 10.4258 179.044 10.4258C182.567 10.4258 185.562 11.643 188.028 14.0773C190.494 16.5116 191.728 19.5064 191.728 23.0617C191.728 26.6171 190.494 29.6119 188.028 32.0462ZM179.044 31.6138C181.446 31.6138 183.464 30.797 185.097 29.1635C186.731 27.53 187.548 25.496 187.548 23.0617C187.548 20.6275 186.731 18.5935 185.097 16.96C183.464 15.3265 181.446 14.5097 179.044 14.5097C176.673 14.5097 174.672 15.3265 173.038 16.96C171.404 18.5935 170.588 20.6275 170.588 23.0617C170.588 25.496 171.404 27.53 173.038 29.1635C174.672 30.797 176.673 31.6138 179.044 31.6138Z" fill="#408CFB"/>
  <path d="M152.532 10.4258C155.895 10.4258 158.762 11.659 161.132 14.1253C163.502 16.5596 164.687 19.5384 164.687 23.0617C164.687 26.5851 163.502 29.5799 161.132 32.0462C158.762 34.4805 155.895 35.6977 152.532 35.6977C148.56 35.6977 145.533 34.1122 143.451 30.9412V44.6821H139.271V11.0504H143.451V15.1823C145.533 12.0113 148.56 10.4258 152.532 10.4258ZM152.003 31.6619C154.405 31.6619 156.423 30.8451 158.057 29.2115C159.69 27.546 160.507 25.496 160.507 23.0617C160.507 20.6275 159.69 18.5935 158.057 16.96C156.423 15.2944 154.405 14.4616 152.003 14.4616C149.569 14.4616 147.535 15.2944 145.901 16.96C144.268 18.5935 143.451 20.6275 143.451 23.0617C143.451 25.496 144.268 27.546 145.901 29.2115C147.535 30.8451 149.569 31.6619 152.003 31.6619Z" fill="#408CFB"/>
  <path d="M124.05 10.4258C127.413 10.4258 130.28 11.659 132.65 14.1253C135.02 16.5596 136.205 19.5384 136.205 23.0617C136.205 26.5851 135.02 29.5799 132.65 32.0462C130.28 34.4805 127.413 35.6977 124.05 35.6977C120.078 35.6977 117.051 34.1122 114.969 30.9412V44.6821H110.789V11.0504H114.969V15.1823C117.051 12.0113 120.078 10.4258 124.05 10.4258ZM123.521 31.6619C125.924 31.6619 127.942 30.8451 129.575 29.2115C131.209 27.546 132.025 25.496 132.025 23.0617C132.025 20.6275 131.209 18.5935 129.575 16.96C127.942 15.2944 125.924 14.4616 123.521 14.4616C121.087 14.4616 119.053 15.2944 117.42 16.96C115.786 18.5935 114.969 20.6275 114.969 23.0617C114.969 25.496 115.786 27.546 117.42 29.2115C119.053 30.8451 121.087 31.6619 123.521 31.6619Z" fill="#408CFB"/>
  <path d="M102.167 11.0504H106.347V35.0731H102.167V31.6138C100.47 34.3364 97.8754 35.6977 94.3841 35.6977C91.5655 35.6977 89.3074 34.8168 87.6098 33.0552C85.9122 31.2615 85.0634 28.8432 85.0634 25.8003V11.0504H89.2433V25.5601C89.2433 27.514 89.7718 29.0354 90.8288 30.1244C91.8858 31.1814 93.3432 31.7099 95.2009 31.7099C97.2829 31.7099 98.9645 31.0693 100.246 29.7881C101.527 28.4749 102.167 26.473 102.167 23.7824V11.0504Z" fill="#408CFB"/>
  <path d="M69.3466 17.5365C69.3466 18.4654 69.811 19.2181 70.7399 19.7947C71.6688 20.3392 72.7899 20.7876 74.1031 21.1399C75.4163 21.4602 76.7296 21.8446 78.0428 22.293C79.356 22.7094 80.4771 23.4461 81.406 24.5031C82.3349 25.5281 82.7993 26.8573 82.7993 28.4909C82.7993 30.6689 81.9505 32.4146 80.2529 33.7278C78.5873 35.041 76.4413 35.6977 73.8148 35.6977C71.4766 35.6977 69.4747 35.1852 67.8092 34.1602C66.1436 33.1352 64.9585 31.774 64.2538 30.0764L67.8572 28.0104C68.2416 29.1635 68.9623 30.0764 70.0192 30.749C71.0762 31.4216 72.3414 31.7579 73.8148 31.7579C75.1921 31.7579 76.3292 31.5017 77.226 30.9892C78.1229 30.4447 78.5713 29.6119 78.5713 28.4909C78.5713 27.562 78.1069 26.8253 77.178 26.2808C76.2491 25.7042 75.1281 25.2558 73.8148 24.9355C72.5016 24.5832 71.1884 24.1828 69.8751 23.7344C68.5619 23.286 67.4408 22.5493 66.5119 21.5243C65.5831 20.4993 65.1186 19.1861 65.1186 17.5846C65.1186 15.5026 65.9194 13.789 67.5209 12.4437C69.1544 11.0985 71.1883 10.4258 73.6226 10.4258C75.5765 10.4258 77.3061 10.8743 78.8115 11.7711C80.349 12.6359 81.5021 13.8531 82.2708 15.4226L78.7635 17.3924C77.8987 15.3425 76.1851 14.3175 73.6226 14.3175C72.4375 14.3175 71.4286 14.6058 70.5958 15.1823C69.763 15.7268 69.3466 16.5116 69.3466 17.5365Z" fill="#408CFB"/>
  <path d="M32.4955 24.9836C32.9119 27.1296 33.8888 28.7952 35.4262 29.9803C36.9957 31.1654 38.9175 31.7579 41.1917 31.7579C44.3627 31.7579 46.6688 30.5888 48.1102 28.2506L51.6655 30.2685C49.3273 33.888 45.804 35.6977 41.0956 35.6977C37.284 35.6977 34.1771 34.5125 31.7748 32.1423C29.4046 29.74 28.2195 26.7132 28.2195 23.0617C28.2195 19.4423 29.3886 16.4315 31.7268 14.0292C34.065 11.627 37.0918 10.4258 40.8073 10.4258C44.3306 10.4258 47.1973 11.675 49.4074 14.1734C51.6495 16.6397 52.7706 19.6185 52.7706 23.1098C52.7706 23.7184 52.7225 24.343 52.6264 24.9836H32.4955ZM40.8073 14.3656C38.5652 14.3656 36.7074 15.0062 35.2341 16.2874C33.7607 17.5365 32.8478 19.2181 32.4955 21.3321H48.5426C48.1903 19.058 47.2934 17.3283 45.8521 16.1432C44.4107 14.9581 42.7291 14.3656 40.8073 14.3656Z" fill="#408CFB"/>
  <path d="M29.6176 4.8526C25.3896 4.50027 23.2756 6.32599 23.2756 10.3298V11.0504H29.6176V15.0862H23.2756V35.0731H19.0957V15.0862H15.2521V11.0504H19.0957V10.3298C19.0957 7.09471 19.9926 4.6444 21.7862 2.97883C23.612 1.31326 26.2224 0.592585 29.6176 0.816795V4.8526Z" fill="#408CFB"/>
  <path d="M10.749 6.67831C9.94826 6.67831 9.27563 6.40605 8.73111 5.86154C8.1866 5.31703 7.91434 4.66041 7.91434 3.89168C7.91434 3.12296 8.1866 2.46634 8.73111 1.92183C9.27563 1.34529 9.94826 1.05701 10.749 1.05701C11.5177 1.05701 12.1744 1.34529 12.7189 1.92183C13.2634 2.46634 13.5356 3.12296 13.5356 3.89168C13.5356 4.66041 13.2634 5.31703 12.7189 5.86154C12.1744 6.40605 11.5177 6.67831 10.749 6.67831ZM8.63502 35.0731V11.0504H12.815V35.0731H8.63502Z" fill="#408CFB"/>
  <path d="M0 35.073V0H4.17994V35.073H0Z" fill="#408CFB"/>
</svg>
