<svg width="26" height="26" viewBox="0 0 26 26" fill="none" xmlns="http://www.w3.org/2000/svg">
<path d="M3.25 8.01667V3.9C3.25 3.54102 3.54102 3.25 3.9 3.25H10.1833C10.5423 3.25 10.8333 3.54102 10.8333 3.9V8.01667C10.8333 8.37565 10.5423 8.66667 10.1833 8.66667H3.9C3.54102 8.66667 3.25 8.37565 3.25 8.01667Z" stroke="black" stroke-width="1.5"/>
<path d="M15.1667 22.1V17.9834C15.1667 17.6244 15.4577 17.3334 15.8167 17.3334H22.1001C22.4591 17.3334 22.7501 17.6244 22.7501 17.9834V22.1C22.7501 22.4591 22.4591 22.75 22.1001 22.75H15.8167C15.4577 22.75 15.1667 22.4591 15.1667 22.1Z" stroke="black" stroke-width="1.5"/>
<path d="M15.1667 13.4333V3.9C15.1667 3.54102 15.4577 3.25 15.8167 3.25H22.1001C22.4591 3.25 22.7501 3.54102 22.7501 3.9V13.4333C22.7501 13.7924 22.4591 14.0833 22.1001 14.0833H15.8167C15.4577 14.0833 15.1667 13.7924 15.1667 13.4333Z" stroke="black" stroke-width="1.5"/>
<path d="M3.25 22.1V12.5666C3.25 12.2076 3.54102 11.9166 3.9 11.9166H10.1833C10.5423 11.9166 10.8333 12.2076 10.8333 12.5666V22.1C10.8333 22.459 10.5423 22.75 10.1833 22.75H3.9C3.54102 22.75 3.25 22.459 3.25 22.1Z" stroke="black" stroke-width="1.5"/>
</svg>
