<svg width="44" height="42" viewBox="0 0 44 42" fill="none" xmlns="http://www.w3.org/2000/svg">
<path d="M0 15.4619C0.051113 15.3 0.110745 15.1467 0.153339 14.9848C0.664469 13.1703 2.23193 11.9095 4.10608 11.8925C7.44546 11.8669 10.7934 11.8754 14.1413 11.8925C14.5331 11.8925 14.6694 11.7732 14.7546 11.4069C14.9676 10.5124 15.2232 9.635 15.4787 8.74904C15.811 7.58196 16.6969 6.84082 17.9066 6.77267C18.6307 6.73007 19.3548 6.73007 20.0704 6.77267C21.2375 6.84082 22.1149 7.5564 22.4471 8.68941C22.7538 9.7287 23.0349 10.785 23.3416 11.8754C23.5035 11.8754 23.6738 11.8754 23.8442 11.8754C25.1732 11.8754 26.5106 11.8669 27.8395 11.8754C30.1396 11.884 31.7752 12.9488 32.7549 15.0189C34.1179 17.9238 35.4724 20.8287 36.8184 23.7507C36.9803 24.1085 37.1677 24.2363 37.5681 24.2363C38.454 24.2363 39.3655 24.1852 40.2344 24.3555C42.1512 24.7389 43.4886 26.4001 43.5312 28.3679C43.5738 30.4465 43.5824 32.5336 43.5483 34.6122C43.5142 36.6397 41.5719 38.5138 39.4848 38.5735C38.8629 38.5905 38.241 38.5905 37.6106 38.5735C37.338 38.5649 37.2273 38.6416 37.1591 38.9227C36.7417 40.5498 35.3191 41.7936 33.709 41.9725C31.9201 42.1684 30.2674 41.308 29.4837 39.7405C29.3048 39.3913 29.194 39.0079 29.0407 38.599C24.3127 38.599 19.5422 38.599 14.7461 38.599C14.695 38.7694 14.6354 38.9568 14.5757 39.1442C14.005 40.8906 12.4119 42.0236 10.5804 41.9895C8.74032 41.9554 7.13878 40.7458 6.67025 38.9739C6.58506 38.6416 6.44876 38.565 6.13356 38.565C5.27316 38.565 4.39572 38.6331 3.55235 38.4883C1.66969 38.1986 0.536686 37.0401 0.0851883 35.2085C0.0681507 35.1404 0.0340753 35.0807 0 35.0211C0 28.5042 0 21.9873 0 15.4619ZM22.3705 13.2555C22.3705 21.2547 22.3705 29.2368 22.3705 37.236C24.6194 37.236 26.8343 37.236 29.0663 37.236C29.2366 36.4608 29.5433 35.7623 30.0885 35.2C31.196 34.0415 32.5505 33.59 34.1094 33.9648C35.6769 34.3396 36.6906 35.3704 37.1506 36.9208C37.2017 37.1082 37.2103 37.2701 37.4743 37.2701C38.1984 37.253 38.9225 37.2956 39.6381 37.2445C41.0437 37.1508 42.279 35.7111 42.1512 34.3566C42.0149 34.3481 41.8786 34.3396 41.7423 34.3396C41.0182 34.3396 40.2941 34.3481 39.5785 34.3396C39.0418 34.3311 38.7692 34.1181 38.7607 33.6325C38.7437 32.261 38.7437 30.881 38.7607 29.5094C38.7692 29.0579 39.0077 28.845 39.4507 28.8194C39.6381 28.8109 39.817 28.8194 40.0044 28.8194C40.72 28.8194 41.4441 28.8194 42.1597 28.8194C42.1767 28.7172 42.1938 28.6575 42.1938 28.6064C42.2619 26.9879 40.933 25.6163 39.2718 25.6078C34.7824 25.5993 30.2845 25.6078 25.795 25.6078C25.0539 25.6078 24.8409 25.3948 24.8409 24.6452C24.8409 21.868 24.8409 19.0909 24.8409 16.3138C24.8409 15.6493 25.0709 15.4193 25.7354 15.4193C27.4647 15.4193 29.194 15.4193 30.9234 15.4193C31.0767 15.4193 31.2215 15.4193 31.4175 15.4193C31.3834 15.3085 31.3749 15.2574 31.3493 15.2148C30.6934 14.0903 29.7222 13.3492 28.4188 13.2981C26.468 13.2129 24.5087 13.264 22.5579 13.2555C22.4897 13.2214 22.4386 13.2385 22.3705 13.2555ZM20.9819 13.2385C20.8371 13.2299 20.7348 13.2214 20.6411 13.2214C15.2146 13.2214 9.78814 13.2214 4.36164 13.2214C4.09756 13.2214 3.81644 13.2385 3.56087 13.2981C2.18934 13.6388 1.34598 14.7378 1.34598 16.2286C1.33746 20.3517 1.34598 24.4748 1.34598 28.5979C1.34598 28.7257 1.36301 28.845 1.37153 28.9898C7.92251 28.9898 14.4479 28.9898 20.9904 28.9898C20.9819 23.7422 20.9819 18.5031 20.9819 13.2385ZM1.35449 30.3784C1.33746 30.4465 1.3119 30.4976 1.3119 30.5572C1.3119 31.8606 1.26931 33.164 1.32894 34.4674C1.38857 35.8986 2.3086 37.006 3.67162 37.1934C4.60017 37.3212 5.5628 37.219 6.53394 37.219C6.56802 37.0997 6.6021 36.9719 6.63617 36.8356C7.13878 35.0467 8.78292 33.7859 10.6315 33.7944C12.5056 33.8029 14.1498 35.0722 14.6098 36.8953C14.6865 37.1934 14.7972 37.2701 15.0954 37.2701C16.9354 37.253 18.7755 37.2616 20.6156 37.2616C20.7348 37.2616 20.8541 37.2445 20.9734 37.236C20.9734 34.9274 20.9734 32.6614 20.9734 30.3869C14.4139 30.3784 7.88844 30.3784 1.35449 30.3784ZM35.5406 24.2107C35.5065 24.1255 35.4895 24.0574 35.4639 23.9977C34.3735 21.6636 33.2831 19.3379 32.2097 16.9953C32.1075 16.7738 31.9712 16.7312 31.7497 16.7312C30.0033 16.7397 28.2655 16.7312 26.5191 16.7397C26.4084 16.7397 26.3062 16.7653 26.2125 16.7738C26.2125 19.2698 26.2125 21.7317 26.2125 24.2192C29.3218 24.2107 32.4142 24.2107 35.5406 24.2107ZM30.4293 37.926C30.4293 39.4594 31.656 40.7287 33.1383 40.7287C34.612 40.7287 35.8728 39.4424 35.8813 37.9346C35.8898 36.4438 34.612 35.1319 33.1553 35.1233C31.6815 35.1148 30.4293 36.4097 30.4293 37.926ZM13.3575 37.9431C13.366 36.4352 12.1138 35.1404 10.64 35.1233C9.17478 35.1063 7.90548 36.4097 7.90548 37.9175C7.90548 39.4424 9.14071 40.7202 10.6145 40.7287C12.0882 40.7373 13.349 39.4509 13.3575 37.9431ZM16.0069 11.8584C18.0259 11.8584 19.9681 11.8584 21.9445 11.8584C21.6804 10.8873 21.4334 9.94167 21.1523 9.01312C20.9904 8.47643 20.59 8.13568 20.0363 8.11012C19.2952 8.07605 18.537 8.10161 17.7958 8.16124C17.3699 8.19531 16.9866 8.42532 16.8503 8.85126C16.5521 9.82241 16.2965 10.8191 16.0069 11.8584ZM42.1597 32.9766C42.1597 32.0054 42.1597 31.0854 42.1597 30.1483C41.4526 30.1483 40.7711 30.1483 40.0981 30.1483C40.0981 31.111 40.0981 32.0395 40.0981 32.9766C40.7967 32.9766 41.4612 32.9766 42.1597 32.9766Z" fill="white"/>
<path d="M19.6445 2.53026C19.6445 3.12658 19.6445 3.71438 19.6445 4.3107C19.6445 4.75368 19.3889 5.05184 19.0141 5.06887C18.6393 5.08591 18.3156 4.77071 18.3156 4.31922C18.307 3.1351 18.307 1.94246 18.3156 0.758345C18.3156 0.306846 18.6222 -0.00835027 19.0056 0.000168564C19.3975 0.0086874 19.6445 0.315365 19.653 0.79242C19.6445 1.3717 19.6445 1.95098 19.6445 2.53026Z" fill="white"/>
<path d="M23.3161 6.18496C23.1287 6.01458 22.8902 5.87828 22.7709 5.67383C22.6091 5.40122 22.7283 5.12862 22.9498 4.91565C23.5376 4.36193 24.1254 3.81672 24.7217 3.263C25.0199 2.98187 25.3095 2.69223 25.6247 2.42815C25.957 2.13851 26.2807 2.15555 26.5618 2.45371C26.8429 2.74335 26.8515 3.09262 26.5448 3.39078C25.6588 4.24266 24.7558 5.07751 23.8443 5.91235C23.7165 6.00606 23.5461 6.05717 23.3161 6.18496Z" fill="white"/>
<path d="M15.3084 5.46938C15.1466 5.65679 15.0273 5.91236 14.8228 5.99755C14.6439 6.07422 14.3117 6.05718 14.1754 5.93791C13.2213 5.09455 12.2928 4.21711 11.3727 3.33115C11.1172 3.08411 11.1342 2.69224 11.3557 2.44519C11.6027 2.17259 11.9776 2.11296 12.2672 2.37704C13.2128 3.23744 14.1413 4.10637 15.0614 4.99232C15.1636 5.08603 15.2062 5.25641 15.3084 5.46938Z" fill="white"/>
<path d="M26.8684 28.8279C26.4339 28.8279 25.991 28.8364 25.5565 28.8279C25.1305 28.8194 24.8579 28.5638 24.8494 28.1975C24.8324 27.8397 25.1135 27.533 25.5139 27.5245C26.4169 27.5075 27.3284 27.5075 28.2314 27.5245C28.6403 27.533 28.9129 27.8397 28.9044 28.1975C28.8874 28.5638 28.6062 28.8194 28.1888 28.8279C27.7458 28.8364 27.3029 28.8279 26.8684 28.8279Z" fill="white"/>
<path d="M6.02276 21.1185C6.02276 18.1624 8.42507 15.7175 11.33 15.7175C14.2179 15.7175 16.6543 18.188 16.6543 21.1185C16.6543 24.0489 14.2179 26.5194 11.33 26.5194C8.41655 26.5194 6.01424 24.0745 6.02276 21.1185ZM11.3044 17.0465C9.04694 17.055 7.2154 18.8865 7.23243 21.1355C7.24095 23.3845 9.0725 25.1905 11.3385 25.1905C13.613 25.1905 15.4105 23.3589 15.3935 21.0588C15.385 18.8354 13.5534 17.0379 11.3044 17.0465Z" fill="white"/>
<path d="M33.8198 37.9516C33.8113 38.3094 33.4876 38.6331 33.1383 38.6331C32.772 38.6331 32.4739 38.2839 32.4909 37.892C32.5079 37.5172 32.8231 37.219 33.1724 37.236C33.5132 37.2616 33.8284 37.6024 33.8198 37.9516Z" fill="white"/>
<path d="M11.296 37.9516C11.2875 38.3094 10.9638 38.6331 10.623 38.6331C10.2567 38.6331 9.94151 38.2839 9.95855 37.9005C9.97558 37.5342 10.2993 37.2275 10.6486 37.2446C10.9978 37.2531 11.3045 37.5938 11.296 37.9516Z" fill="white"/>
<path d="M11.9945 21.7829C11.9945 22.2088 12.003 22.5837 11.9945 22.967C11.9859 23.1629 11.9604 23.3589 11.9093 23.5463C11.8241 23.8445 11.5856 24.0233 11.3044 23.9467C11.0915 23.8956 10.8189 23.7167 10.7507 23.5293C10.64 23.2226 10.6655 22.8648 10.6485 22.524C10.64 22.2855 10.6485 22.047 10.6485 21.7829C10.3844 21.7829 10.1629 21.7914 9.94143 21.7829C9.63475 21.7744 9.31955 21.7829 9.01287 21.7318C8.68916 21.6807 8.49323 21.4592 8.49323 21.1099C8.49323 20.7521 8.67212 20.5306 9.00436 20.488C9.40474 20.4454 9.82216 20.4369 10.2311 20.4625C10.5718 20.488 10.6911 20.3773 10.6655 20.0365C10.64 19.6958 10.6315 19.355 10.657 19.0143C10.6996 18.5031 10.9466 18.2561 11.347 18.2646C11.7474 18.2731 11.9774 18.5372 11.9945 19.0484C12.0115 19.4998 11.9945 19.9513 11.9945 20.4454C12.4886 20.4454 12.9315 20.4369 13.383 20.4454C13.8686 20.454 14.1668 20.6925 14.1838 21.0844C14.2008 21.4847 13.8856 21.7573 13.3916 21.7659C12.9315 21.7914 12.48 21.7829 11.9945 21.7829Z" fill="white"/>
</svg>
