<svg width="22" height="22" viewBox="0 0 22 22" fill="none" xmlns="http://www.w3.org/2000/svg">
<path d="M14.25 20.75H7.75V11.65C7.75 11.291 8.04102 11 8.4 11H13.6C13.959 11 14.25 11.291 14.25 11.65V20.75Z" stroke="black" stroke-width="1.5" stroke-linecap="round" stroke-linejoin="round"/>
<path d="M20.1 20.7499H14.25V17.6083C14.25 17.2492 14.541 16.9583 14.9 16.9583H20.1C20.459 16.9583 20.75 17.2492 20.75 17.6083V20.0999C20.75 20.4589 20.459 20.7499 20.1 20.7499Z" stroke="black" stroke-width="1.5" stroke-linecap="round" stroke-linejoin="round"/>
<path d="M7.75 20.7501V15.4417C7.75 15.0827 7.45898 14.7917 7.1 14.7917H1.9C1.54102 14.7917 1.25 15.0827 1.25 15.4417V20.1001C1.25 20.4591 1.54102 20.7501 1.9 20.7501H7.75Z" stroke="black" stroke-width="1.5" stroke-linecap="round" stroke-linejoin="round"/>
<path d="M9.70607 3.53936L10.6909 1.45107C10.8173 1.18298 11.1826 1.18298 11.3091 1.45107L12.2939 3.53936L14.4965 3.8763C14.7791 3.91953 14.8917 4.28309 14.6871 4.49165L13.0936 6.11601L13.4697 8.41083C13.518 8.70552 13.2225 8.93029 12.9696 8.79108L11 7.70701L9.03039 8.79108C8.77755 8.93029 8.48199 8.70552 8.53028 8.41083L8.90635 6.11601L7.31289 4.49165C7.1083 4.28309 7.22093 3.91953 7.50352 3.8763L9.70607 3.53936Z" stroke="black" stroke-width="1.5" stroke-linecap="round" stroke-linejoin="round"/>
</svg>
