<svg width="26" height="26" viewBox="0 0 26 26" fill="none" xmlns="http://www.w3.org/2000/svg">
<path d="M19.6447 11.9167C20.2751 17.7402 22.75 19.5001 22.75 19.5001H3.25C3.25 19.5001 6.5 17.189 6.5 9.10008C6.5 7.26124 7.18482 5.49773 8.40381 4.19748C9.6228 2.89722 11.2761 2.16675 13 2.16675C13.3654 2.16675 13.7277 2.19957 14.0833 2.2637" stroke="black" stroke-width="1.5" stroke-linecap="round" stroke-linejoin="round"/>
<path d="M20.5833 8.66675C22.3783 8.66675 23.8333 7.21167 23.8333 5.41675C23.8333 3.62183 22.3783 2.16675 20.5833 2.16675C18.7884 2.16675 17.3333 3.62183 17.3333 5.41675C17.3333 7.21167 18.7884 8.66675 20.5833 8.66675Z" stroke="black" stroke-width="1.5" stroke-linecap="round" stroke-linejoin="round"/>
<path d="M14.8742 22.75C14.6837 23.0784 14.4104 23.3509 14.0814 23.5403C13.7525 23.7298 13.3796 23.8295 13 23.8295C12.6204 23.8295 12.2475 23.7298 11.9186 23.5403C11.5897 23.3509 11.3163 23.0784 11.1258 22.75" stroke="black" stroke-width="1.5" stroke-linecap="round" stroke-linejoin="round"/>
</svg>
