<svg width="42" height="42" viewBox="0 0 42 42" fill="none" xmlns="http://www.w3.org/2000/svg">
<path d="M10.2344 41.9911C9.88389 41.7633 9.7875 41.4391 9.7875 41.0273C9.80503 39.4851 9.7875 37.9429 9.80503 36.4007C9.80503 36.1116 9.73493 35.9276 9.49835 35.7436C8.06133 34.6307 6.63307 33.5091 5.20481 32.3788C4.34611 31.7041 3.68017 30.8717 3.25082 29.8552C2.24315 27.4894 1.22672 25.1323 0.201533 22.7752C0.148959 22.6438 0.0700985 22.5211 0 22.3984C0 19.9537 0 17.5002 0 15.0555C0.779846 13.4695 3.2771 13.1979 4.47754 14.9241C5.05585 15.7565 5.25739 16.7029 5.40635 17.6667C5.49397 18.2713 5.56407 18.8847 5.58159 19.4893C5.60788 20.0851 5.02081 20.4795 4.5564 20.1815C4.38116 20.0676 4.2322 19.8048 4.19715 19.5945C4.03066 18.6394 3.94304 17.6667 3.75027 16.7116C3.67141 16.3173 3.43483 15.9318 3.19824 15.5988C2.92661 15.222 2.49726 15.0906 2.03286 15.187C1.48959 15.3009 1.40197 15.4148 1.40197 15.9756C1.40197 17.842 1.40197 19.7084 1.41073 21.5748C1.41073 21.8376 1.47207 22.1268 1.57722 22.3721C2.56736 24.7029 3.57502 27.025 4.56516 29.347C4.89813 30.1356 5.42387 30.7665 6.08105 31.2835C7.60569 32.4839 9.12157 33.6844 10.6637 34.8586C11.058 35.1652 11.2245 35.4982 11.2158 36.0064C11.1895 37.68 11.1895 39.3537 11.2158 41.036C11.2245 41.4479 11.1194 41.7721 10.7689 41.9999C10.5849 41.9911 10.4096 41.9911 10.2344 41.9911Z" fill="white"/>
<path d="M31.2295 41.9913C30.879 41.7635 30.7826 41.4392 30.7826 41.0274C30.8001 39.2925 30.8001 37.5575 30.7826 35.8225C30.7826 35.4458 30.9053 35.1917 31.1944 34.9638C32.7629 33.7459 34.3226 32.5279 35.8735 31.3011C36.5657 30.7491 37.1002 30.0832 37.4507 29.2507C38.4321 26.9375 39.4398 24.633 40.4211 22.3197C40.5175 22.0919 40.5701 21.8202 40.5701 21.5661C40.5876 19.7173 40.5789 17.8684 40.5789 16.0108C40.5789 15.3799 40.2021 15.0557 39.5537 15.1608C39.0279 15.2397 38.6249 15.5551 38.4847 16.0283C38.2218 16.9396 38.0466 17.8859 37.8538 18.8235C37.8012 19.0951 37.81 19.3755 37.7749 19.6472C37.7223 20.0502 37.442 20.2956 37.0827 20.2868C36.741 20.2781 36.3729 19.9801 36.3905 19.6209C36.4781 18.0699 36.5307 16.4927 37.3719 15.1082C38.1955 13.7501 39.764 13.3558 41.0871 14.1268C41.6566 14.4511 41.9721 14.9155 41.9633 15.6165C41.937 17.7107 41.9633 19.8136 41.9458 21.9079C41.9458 22.162 41.8932 22.4336 41.7881 22.6614C40.7541 25.0974 39.7026 27.5246 38.6599 29.9605C38.2481 30.9244 37.6084 31.7042 36.8023 32.3526C35.3565 33.5093 33.8932 34.6396 32.4299 35.7787C32.2196 35.9365 32.1408 36.0942 32.1408 36.357C32.1495 37.9168 32.132 39.4765 32.1583 41.0362C32.167 41.448 32.0619 41.7722 31.7114 42C31.5712 41.9913 31.4047 41.9913 31.2295 41.9913Z" fill="white"/>
<path d="M22.8257 41.9911C22.4752 41.7633 22.3788 41.4391 22.3788 41.0272C22.3963 38.5913 22.3875 36.1641 22.3875 33.7282C22.3875 30.267 24.5518 27.2878 27.8377 26.1837C28.1006 26.0961 28.3634 25.9296 28.565 25.7369C29.5814 24.7555 30.5628 23.739 31.5967 22.7664C32.4204 21.9865 33.3842 21.417 34.5496 21.3206C35.8815 21.2155 36.9593 21.7675 37.8092 22.7401C37.9494 22.8978 37.8706 23.2746 37.8355 23.5375C37.818 23.6602 37.6603 23.7653 37.5551 23.8617C35.6449 25.7631 33.7435 27.6733 31.8333 29.5748C31.7282 29.6799 31.623 29.7851 31.5091 29.8639C31.2024 30.0742 30.8958 30.0392 30.6329 29.7938C30.3525 29.531 30.3437 29.2068 30.5277 28.8826C30.6066 28.7511 30.7293 28.6372 30.8432 28.5233C32.4905 26.876 34.1378 25.2286 35.7939 23.5813C35.9078 23.4674 36.0305 23.371 36.2057 23.222C35.496 22.7313 34.7862 22.5649 34.0677 22.8978C33.4894 23.1695 32.9111 23.5112 32.4379 23.9406C31.4303 24.8606 30.4839 25.8595 29.5201 26.8322C29.1871 27.1651 28.8366 27.3842 28.3634 27.5331C26.278 28.1728 24.841 29.5485 24.1575 31.6164C23.921 32.3174 23.8246 33.0973 23.807 33.8421C23.7632 36.2342 23.7808 38.6176 23.7983 41.0097C23.7983 41.4215 23.7019 41.7458 23.3514 41.9736C23.1762 41.9911 23.0009 41.9911 22.8257 41.9911Z" fill="white"/>
<path d="M18.6289 41.9913C18.2784 41.7635 18.182 41.4393 18.182 41.0274C18.1995 38.609 18.1995 36.1906 18.1908 33.7722C18.182 30.9507 16.561 28.5673 13.906 27.6473C13.1524 27.3844 12.5916 26.9725 12.0571 26.4293C11.1984 25.553 10.331 24.6943 9.45473 23.8444C8.92899 23.3362 8.31563 22.9331 7.5796 22.7841C6.93119 22.6527 6.35288 22.8104 5.73075 23.2222C6.09001 23.5552 6.41421 23.8444 6.72089 24.1511C8.19296 25.6056 9.65627 27.0689 11.1108 28.5323C11.2335 28.6549 11.3649 28.7776 11.4525 28.9266C11.6278 29.2245 11.5927 29.5224 11.3474 29.7678C11.1108 30.0131 10.8129 30.0657 10.515 29.8817C10.366 29.794 10.2433 29.6626 10.1207 29.5399C8.21925 27.6473 6.32659 25.7546 4.42517 23.8619C3.83809 23.2748 3.84685 22.9857 4.46898 22.4161C5.81837 21.1894 7.5095 20.9528 9.09548 21.8728C9.7176 22.2321 10.2872 22.714 10.8129 23.2047C11.7066 24.0371 12.5478 24.9309 13.4241 25.7809C13.5905 25.9474 13.8184 26.0875 14.0374 26.1576C17.4022 27.2529 19.5664 30.2146 19.5664 33.7634C19.5664 36.1818 19.5577 38.6003 19.5752 41.0187C19.5752 41.4305 19.4788 41.7547 19.1283 41.9825C18.9794 41.9913 18.8041 41.9913 18.6289 41.9913Z" fill="white"/>
<path d="M12.6882 16.8517C11.2424 17.3687 9.92807 17.0707 8.79773 16.028C8.07922 15.3621 7.90397 14.5209 8.21942 13.5921C8.53486 12.6895 9.2008 12.1726 10.1296 12.1025C10.6904 12.0586 10.9357 11.8308 11.1636 11.3489C11.812 9.99948 12.8196 9.02685 14.3443 8.72893C15.1416 8.57121 15.939 8.65883 16.7013 8.95675C16.8328 9.00933 16.9642 9.0619 17.1219 9.12324C17.157 8.79027 17.192 8.49235 17.2271 8.18566C17.3497 7.27437 17.8141 6.60843 18.6641 6.24917C19.4965 5.89868 20.2851 6.04764 21.0124 6.58214C21.0913 6.64348 21.1701 6.71358 21.1964 6.7311C21.7221 6.39813 22.2304 6.10021 22.7123 5.76724C22.8262 5.68838 22.8875 5.51313 22.9226 5.37293C23.7287 2.42877 26.3399 0.229406 29.2928 0.019108C32.7627 -0.226239 35.9872 1.91179 37.065 5.2415C38.02 8.1769 37.249 10.7443 35.2249 12.9875C33.9894 14.3544 32.4647 15.3621 30.8262 16.177C30.2566 16.4574 29.8974 16.8604 29.6257 17.43C28.8897 18.9985 28.1186 20.5494 27.0233 21.9076C25.4812 23.8441 23.5535 25.1584 21.0562 25.4125C18.9883 25.6228 16.9642 25.4301 15.2293 24.1245C13.5119 22.8364 12.7933 21.0226 12.6619 18.9459C12.6531 18.2537 12.6882 17.5527 12.6882 16.8517ZM19.4702 14.3018C19.4439 14.5735 19.4439 14.7399 19.4089 14.9064C19.33 15.3796 19.2687 15.8528 19.146 16.3172C19.0409 16.7202 18.6904 16.8955 18.2961 16.7991C17.9281 16.7115 17.7265 16.361 17.7966 15.9579C17.8229 15.8177 17.8667 15.6775 17.893 15.5286C18.1033 14.2668 18.1646 13.005 17.6564 11.787C16.8328 9.79794 14.3706 9.4124 13.0036 11.086C12.583 11.603 12.3289 12.2602 12.0573 12.8823C11.8383 13.3642 11.663 13.5132 11.1285 13.4782C10.8832 13.4606 10.6291 13.4519 10.3837 13.4694C9.9894 13.4957 9.67396 13.6534 9.54253 14.0477C9.41985 14.442 9.51624 14.7837 9.83168 15.0729C10.8306 15.993 12.2676 15.844 12.9949 14.6961C13.2315 14.3193 13.4067 13.8987 13.5995 13.4869C13.6871 13.2941 13.7397 13.0751 13.8361 12.8735C14.0025 12.5143 14.353 12.3741 14.7035 12.4968C15.0715 12.6282 15.2468 12.9787 15.1416 13.373C15.0978 13.5395 15.0277 13.6972 14.9664 13.8637C14.3443 15.6775 13.8711 17.5264 14.1603 19.4629C14.4669 21.5483 15.5097 23.108 17.5951 23.7126C20.5217 24.5538 23.4571 23.9317 25.6301 21.4169C26.7079 20.1639 27.4965 18.7444 28.1449 17.246C28.6531 16.0631 29.4242 15.2394 30.5984 14.6786C32.2019 13.9163 33.6214 12.8648 34.7079 11.419C36.1624 9.46497 36.5305 7.33571 35.5053 5.09254C34.4801 2.8406 32.6663 1.58758 30.1865 1.41233C27.3914 1.20203 24.7627 3.28748 24.2369 6.08269C24.1405 6.60843 23.8952 6.88883 23.387 7.05531C23.019 7.17799 22.6422 7.42333 22.3881 7.71249C21.5469 8.64131 21.7221 10.1134 22.7123 10.8845C22.8262 10.9721 22.9576 11.0422 23.0715 11.1298C23.3782 11.3664 23.4571 11.752 23.2818 12.0586C23.0891 12.3916 22.7035 12.4968 22.3355 12.3215C21.065 11.7257 20.2238 10.1134 20.4516 8.69388C20.548 8.06299 20.2588 7.58106 19.7243 7.5022C19.1548 7.41457 18.7167 7.75631 18.629 8.36091C18.3136 10.5427 19.3738 12.7333 21.2753 13.8549C22.2041 14.3982 23.203 14.6435 24.2807 14.6173C24.7539 14.6085 25.0781 14.8889 25.0869 15.292C25.1044 15.7126 24.789 16.0105 24.2895 16.0105C23.8952 16.0105 23.5009 16.0017 23.1153 15.9579C21.766 15.8002 20.583 15.2394 19.4702 14.3018Z" fill="white"/>
</svg>
