<svg width="37" height="42" viewBox="0 0 37 42" fill="none" xmlns="http://www.w3.org/2000/svg">
<path d="M29.5882 0C30.3948 0.236706 31.14 0.569848 31.6923 1.2449C32.2446 1.91118 32.5251 2.68267 32.5251 3.53306C32.5339 6.89078 32.5339 10.2397 32.5251 13.5975C32.5251 13.6501 32.5076 13.7114 32.4988 13.7903C32.043 13.7903 31.6046 13.7903 31.0874 13.7903C31.0874 13.6238 31.0874 13.4572 31.0874 13.2906C31.0874 10.1258 31.0523 6.96091 31.1049 3.79607C31.1312 2.22679 30.0091 1.38517 28.694 1.38517C20.4005 1.41147 12.1071 1.39394 3.8136 1.4027C2.24432 1.4027 1.41147 2.23556 1.41147 3.80483C1.41147 15.2807 1.41147 26.7566 1.41147 38.2324C1.41147 39.7666 2.25309 40.6083 3.79606 40.6083C12.1071 40.6083 20.4093 40.5995 28.7203 40.617C30.0178 40.617 31.175 39.7842 31.0961 38.2324C31.0435 37.2155 31.0874 36.1897 31.0874 35.1728C31.0874 35.015 31.0874 34.8572 31.0874 34.6818C31.5871 34.6818 32.0254 34.6818 32.4638 34.6818C32.4901 34.7257 32.5164 34.752 32.5076 34.7783C32.4988 36.181 32.5514 37.5837 32.4462 38.9688C32.3147 40.6609 30.7893 41.9934 29.0973 41.9934C20.5233 42.0022 11.958 42.0022 3.38402 41.9934C1.59557 41.9934 0.0701351 40.468 0.00876689 38.6883C0 38.5305 0 38.3639 0 38.2061C0.0175338 26.7303 0.0175338 15.2544 0.00876689 3.77853C0.00876689 2.27063 0.587381 1.13093 1.91118 0.39451C2.22679 0.219172 2.57746 0.131503 2.91061 0C11.8002 0 20.6898 0 29.5882 0Z" fill="white"/>
<path d="M15.1053 19.2257C14.6582 19.3572 14.2461 19.4712 13.8516 19.6115C13.5448 19.7167 13.2204 19.7079 13.0626 19.4449C12.9311 19.217 12.8522 18.8575 12.9311 18.6033C13.4571 16.8674 14.0094 15.1404 14.5881 13.4133C14.8511 12.6243 14.6757 12.0193 14.062 11.4583C12.5804 10.0906 12.072 8.38984 12.6681 6.46113C13.2643 4.53241 14.6407 3.38395 16.6307 3.10341C18.314 2.8667 19.7605 3.43655 20.8914 4.72528C21.1106 4.97952 21.286 5.08473 21.6454 4.98829C24.3631 4.2957 27.037 6.08415 27.5367 8.88079C28.0102 11.5635 26.0113 14.1672 23.2497 14.4302C22.4958 14.5004 21.9873 14.8686 21.7506 15.6225C21.2246 17.3145 20.6723 18.9978 20.1287 20.6898C19.9446 21.2684 19.7693 21.3999 19.1819 21.3473C18.2088 21.2684 17.2357 21.1807 16.2713 21.1018C15.9206 21.0755 15.7102 20.8914 15.5963 20.5758C15.4384 20.1375 15.2806 19.6991 15.1053 19.2257ZM15.3595 17.6126C16.0784 17.5512 16.1924 18.1123 16.394 18.5419C17.9282 17.4636 17.9282 17.4636 18.3491 15.7102C18.3841 15.5699 18.4192 15.4297 18.4455 15.2894C18.5332 14.8773 18.3315 14.5267 17.9721 14.4302C17.5688 14.325 17.1655 14.5179 17.1129 14.9475C16.9814 16.1222 16.508 17.0515 15.3595 17.6126Z" fill="white"/>
<path d="M27.3878 24.2404C27.3878 21.5752 27.3878 18.9101 27.3878 16.2362C27.3878 15.4384 27.607 15.2192 28.3872 15.2192C30.6929 15.2192 32.9898 15.2192 35.2955 15.2192C35.9969 15.2192 36.2423 15.4647 36.2423 16.1661C36.2423 21.5402 36.2423 26.923 36.2423 32.2971C36.2423 32.9985 35.9969 33.244 35.3043 33.244C32.9723 33.244 30.6403 33.244 28.3083 33.244C27.6333 33.244 27.3878 32.9985 27.3878 32.3234C27.3878 29.632 27.3878 26.9318 27.3878 24.2404ZM31.8589 23.539C31.1751 23.539 30.4913 23.5303 29.8074 23.539C29.2902 23.5478 28.9746 23.8196 28.9746 24.2404C28.9746 24.6612 29.299 24.933 29.8074 24.933C31.1488 24.9417 32.4901 24.9417 33.8314 24.933C34.3487 24.933 34.6643 24.6524 34.6643 24.2316C34.6643 23.8108 34.3487 23.539 33.8314 23.5303C33.1739 23.5303 32.5164 23.539 31.8589 23.539ZM31.8326 18.3753C32.4989 18.3753 33.1739 18.3753 33.8402 18.3753C34.3399 18.3753 34.638 18.1211 34.6555 17.7178C34.6731 17.3058 34.3575 16.9902 33.8578 16.9902C32.4901 16.9814 31.1225 16.9814 29.7461 16.9902C29.2727 16.9989 28.9571 17.3058 28.9658 17.7003C28.9746 18.1035 29.2814 18.3753 29.7724 18.3753C30.4562 18.3841 31.1488 18.3753 31.8326 18.3753ZM31.8326 30.0879C31.1663 30.0879 30.4913 30.0879 29.825 30.0879C29.299 30.0879 28.9834 30.3421 28.9746 30.7629C28.9658 31.175 29.2902 31.4731 29.7899 31.4818C31.1488 31.4906 32.4989 31.4906 33.8578 31.4818C34.3575 31.4818 34.6818 31.1662 34.6643 30.7542C34.6468 30.3509 34.3399 30.0967 33.849 30.0967C33.1739 30.0879 32.4989 30.0879 31.8326 30.0879ZM31.8326 20.2777C31.1488 20.2777 30.465 20.2777 29.7811 20.2777C29.2902 20.2777 28.9834 20.5407 28.9746 20.944C28.9658 21.3473 29.2727 21.6366 29.7548 21.6366C31.14 21.6454 32.5164 21.6454 33.9016 21.6366C34.3575 21.6366 34.6555 21.3561 34.6643 20.9703C34.6731 20.567 34.3662 20.2865 33.8841 20.2777C33.2002 20.2777 32.5164 20.2777 31.8326 20.2777ZM31.7975 28.1855C32.4813 28.1855 33.1652 28.1855 33.849 28.1855C34.3399 28.1855 34.6468 27.9312 34.6555 27.528C34.6643 27.1247 34.3662 26.8354 33.8841 26.8266C32.4989 26.8178 31.1225 26.8178 29.7373 26.8266C29.2639 26.8266 28.9571 27.1334 28.9746 27.5367C28.9921 27.9312 29.2902 28.1855 29.7461 28.1855C30.4299 28.1942 31.1137 28.1855 31.7975 28.1855Z" fill="white"/>
<path d="M16.0609 37.8992C15.0614 38.5655 13.9831 38.8811 12.782 38.7672C10.5465 38.5567 8.85448 36.9349 8.45997 34.6292C8.11806 32.6128 9.3279 30.4035 11.2829 29.597C12.1771 29.2288 12.5453 28.6239 12.5366 27.6858C12.5278 26.5373 12.5629 25.3801 12.633 24.2316C12.6505 23.9862 12.8346 23.6706 13.0451 23.5391C13.8078 23.0656 14.6143 22.6536 15.4033 22.2153C15.7716 22.0136 16.131 22.0662 16.3852 22.3906C16.6833 22.7763 16.9902 22.7763 17.4022 22.601C17.9545 22.3731 18.5244 22.2065 19.0942 22.0224C19.7605 21.8032 20.155 22.0925 20.1462 22.7851C20.1199 24.5648 20.0849 26.3445 20.0323 28.1154C20.0147 28.8956 20.3566 29.4129 21.0492 29.7373C23.2146 30.763 24.2842 32.9985 23.7056 35.2779C23.1445 37.4872 20.944 39.074 18.6208 38.9074C17.674 38.8548 16.8236 38.4866 16.0609 37.8992ZM15.8066 23.7582C15.7716 23.7319 15.7365 23.7056 15.7014 23.6793C15.2368 23.9336 14.7546 24.1703 14.3075 24.4508C14.1672 24.5385 14.0357 24.7489 14.0269 24.9067C13.9743 25.8798 13.9393 26.8617 13.9393 27.8348C13.948 29.3252 13.2467 30.2983 11.8966 30.8769C10.564 31.4556 9.85391 32.5251 9.83637 33.9541C9.81884 35.3481 10.4764 36.4352 11.7476 37.0401C13.0275 37.6538 14.2724 37.4872 15.3946 36.6105C16.0083 36.1283 16.1661 36.1371 16.771 36.6543C17.8756 37.5836 19.1117 37.8116 20.4355 37.2066C21.733 36.6105 22.4169 35.5585 22.4169 34.1295C22.4169 32.6917 21.7243 31.666 20.4443 31.0435C19.2783 30.4737 18.6208 29.5619 18.6296 28.2469C18.6296 27.0546 18.6822 25.8535 18.7085 24.6612C18.7172 24.3456 18.7085 24.03 18.7085 23.7056C17.7967 23.8985 16.9726 24.1001 16.8674 25.2749C16.8323 25.7045 16.7271 26.1165 16.8499 26.5461C16.9989 27.0721 17.1217 27.6157 17.2356 28.1592C17.3233 28.58 17.0866 28.9482 16.7096 29.0359C16.3239 29.1236 15.9732 28.9044 15.8592 28.4748C15.754 28.0803 15.7102 27.6683 15.5699 27.2913C15.2105 26.3094 15.2631 25.3626 15.6488 24.4157C15.7365 24.2053 15.754 23.9686 15.8066 23.7582Z" fill="white"/>
<path d="M11.5987 19.5941C11.4409 19.7869 11.3181 20.0324 11.1165 20.1551C10.8359 20.3305 10.5291 20.2428 10.2836 20.0061C9.64364 19.3661 9.01243 18.7349 8.37245 18.0949C8.11821 17.8407 7.84643 17.5864 7.60096 17.3234C7.29412 16.9991 7.29412 16.5958 7.57466 16.3065C7.8552 16.0259 8.27601 16.0084 8.58285 16.3152C9.49461 17.2095 10.3976 18.1125 11.2918 19.033C11.4233 19.1645 11.4759 19.3574 11.5987 19.5941Z" fill="white"/>
<path d="M9.24024 22.1365C8.32849 21.9874 7.31153 21.8208 6.29457 21.6543C6.0491 21.6104 5.80362 21.5754 5.56692 21.5228C5.10227 21.4263 4.8568 21.0932 4.9357 20.6899C5.0146 20.2954 5.36528 20.0675 5.83869 20.1376C6.78551 20.2866 7.73234 20.4444 8.67916 20.6022C8.95094 20.6461 9.22271 20.6899 9.49448 20.7337C9.89776 20.8127 10.1695 21.1283 10.1432 21.4877C10.0994 21.891 9.79256 22.1452 9.24024 22.1365Z" fill="white"/>
<path d="M6.34716 26.888C6.18059 26.7126 5.91759 26.5373 5.80362 26.3006C5.64581 25.9762 5.82115 25.6694 6.12799 25.494C6.6803 25.1784 7.24139 24.8716 7.80247 24.556C8.33725 24.2579 8.86326 23.9511 9.39804 23.6617C9.82762 23.4338 10.2134 23.5215 10.4238 23.8809C10.6342 24.2404 10.5202 24.6436 10.1082 24.8803C9.0386 25.494 7.9515 26.0902 6.87318 26.6863C6.75044 26.7565 6.61017 26.7915 6.34716 26.888Z" fill="white"/>
</svg>
