<svg width="42" height="42" viewBox="0 0 42 42" fill="none" xmlns="http://www.w3.org/2000/svg">
<path d="M41.8762 37.3214C41.8083 37.576 41.7319 37.8306 41.6641 38.0767C41.0276 40.215 39.1863 41.734 36.963 41.9631C34.8247 42.1837 32.7033 41.0296 31.668 39.0864C31.6002 38.9676 31.5408 38.8404 31.4389 38.6622C31.074 39.2477 30.7516 39.7992 30.4037 40.3423C29.1224 42.311 26.4664 42.5146 24.939 40.7581C24.048 39.7314 23.8189 38.2039 24.5232 37.0075C25.7366 34.9285 26.967 32.8495 28.2993 30.8469C29.7079 28.7425 32.89 29.014 34.044 31.2712C34.0949 31.373 34.1458 31.4749 34.1543 31.4918C34.9604 31.373 35.7326 31.1609 36.5048 31.1524C39.076 31.1185 41.3077 33.0023 41.7829 35.5225C41.7998 35.6158 41.8423 35.7007 41.8762 35.794C41.8762 36.3117 41.8762 36.8208 41.8762 37.3214ZM35.8599 40.512C37.4637 41.0636 39.653 39.7229 40.2979 37.8306C41.0446 35.6328 39.653 33.5029 38.3462 33.0447C37.5231 35.531 36.6915 38.0257 35.8599 40.512ZM34.5447 40.1387C35.3932 37.593 36.2248 35.0982 37.0564 32.6034C36.3691 32.4083 35.4866 32.5186 34.7228 32.9259C34.5701 33.0108 34.4513 33.2144 34.3749 33.3841C34.1713 33.8423 34.044 34.343 33.8064 34.7758C33.4415 35.4546 33.0003 36.091 32.6099 36.7614C32.5166 36.9141 32.4572 37.1432 32.4911 37.313C32.7287 38.5434 33.3991 39.4768 34.5447 40.1387ZM30.6413 37.3469C29.4703 36.6341 28.3502 35.9383 27.2131 35.251C27.1537 35.3188 27.1113 35.3528 27.0773 35.4037C26.6191 36.1504 26.1524 36.8802 25.7112 37.6439C25.1681 38.5943 25.4736 39.7823 26.3815 40.3508C27.3065 40.9363 28.5284 40.6902 29.1393 39.7568C29.6654 38.9846 30.1321 38.1785 30.6413 37.3469ZM27.9004 34.063C29.0715 34.7758 30.1915 35.4631 31.371 36.1929C31.8972 35.2934 32.4742 34.4363 32.9154 33.5199C33.3567 32.6034 32.8984 31.5173 32.0075 31.0336C31.108 30.5499 29.9964 30.779 29.4194 31.6276C28.8848 32.3998 28.4181 33.2229 27.9004 34.063Z" fill="white"/>
<path d="M41.8763 12.9337C41.6727 13.2986 41.3587 13.4174 40.9599 13.4089C40.1962 13.3919 39.441 13.4089 38.6773 13.4004C38.0408 13.3919 37.8117 13.1628 37.8117 12.5264C37.8117 8.84364 37.8117 5.16937 37.8117 1.48662C37.8117 0.875661 38.0324 0.655035 38.6518 0.655035C39.4155 0.655035 40.1792 0.672007 40.9344 0.64655C41.3333 0.629579 41.6472 0.731406 41.8678 1.07932C41.8763 5.0336 41.8763 8.97941 41.8763 12.9337ZM40.4932 12.0003C40.4932 8.63998 40.4932 5.33909 40.4932 2.04667C40.035 2.04667 39.6107 2.04667 39.1949 2.04667C39.1949 5.38151 39.1949 8.6909 39.1949 12.0003C39.6446 12.0003 40.0604 12.0003 40.4932 12.0003Z" fill="white"/>
<path d="M41.8763 16.2346C36.9292 16.2346 31.9821 16.2346 27.0011 16.2346C27.0011 15.7849 27.0011 15.3606 27.0011 14.877C31.9566 14.877 36.9122 14.877 41.8763 14.877C41.8763 15.3352 41.8763 15.7849 41.8763 16.2346Z" fill="white"/>
<path d="M13.9332 8.75034C14.5187 8.79276 15.0533 8.78428 15.5794 8.86913C17.2341 9.15765 18.4391 10.0911 19.0755 11.6185C20.3229 14.6054 21.5024 17.6178 22.6903 20.6302C23.1486 21.8012 22.5715 23.074 21.4345 23.5323C20.2889 23.999 19.0161 23.4898 18.5069 22.3273C18.0063 21.1902 17.5481 20.0447 17.0729 18.8991C17.0135 18.7633 16.9541 18.6276 16.8183 18.5088C16.8183 19.9938 16.8183 21.4787 16.8183 22.9807C16.3601 22.9807 15.9443 22.9807 15.4946 22.9807C15.4861 22.8958 15.4606 22.8025 15.4606 22.7091C15.4606 20.1295 15.4606 17.5414 15.4606 14.9618C15.4606 14.4017 15.9104 14.0284 16.3601 14.2405C16.5637 14.3339 16.7419 14.5799 16.8268 14.7921C17.7602 16.9983 18.6767 19.2046 19.5931 21.4193C19.627 21.5127 19.6695 21.606 19.7034 21.6909C19.9495 22.234 20.4162 22.4461 20.8999 22.2424C21.3836 22.0388 21.5787 21.5466 21.3666 21.012C20.5435 18.9415 19.7119 16.8795 18.8888 14.8175C18.5579 13.9944 18.2354 13.1713 17.896 12.3482C17.319 10.9311 16.148 10.1335 14.6121 10.1335C12.4398 10.125 10.2674 10.1165 8.09514 10.142C6.5847 10.1589 5.47309 10.8802 4.89607 12.2888C3.72506 15.1824 2.57102 18.093 1.41698 20.9951C1.2303 21.4618 1.32364 21.8776 1.66307 22.1406C1.98552 22.3867 2.4098 22.4121 2.71528 22.1491C2.8765 22.0133 3.01227 21.8097 3.09713 21.606C4.03903 19.3743 4.96396 17.1426 5.89737 14.9024C5.94829 14.7751 5.9992 14.6393 6.07557 14.5205C6.24528 14.249 6.50833 14.1472 6.80533 14.2235C7.10232 14.2914 7.28901 14.5036 7.32295 14.8175C7.33143 14.9279 7.32295 15.0467 7.32295 15.157C7.32295 18.6021 7.35689 22.0473 7.30598 25.4839C7.28052 27.0623 7.07687 28.6321 6.94958 30.2019C6.79684 31.9839 6.63562 33.7659 6.48288 35.5563C6.38105 36.7528 6.27074 37.9408 6.16891 39.1373C6.15194 39.29 6.13497 39.4512 6.14345 39.604C6.16891 40.1386 6.57622 40.5628 7.10232 40.6138C7.586 40.6647 8.09514 40.3083 8.17999 39.7907C8.36668 38.5942 8.5279 37.3892 8.68913 36.1928C9.01158 33.8168 9.33403 31.4493 9.65648 29.0733C9.77528 28.1824 9.90257 27.2829 10.0383 26.3919C10.1147 25.8912 10.3268 25.7215 10.836 25.713C11.2178 25.713 11.5997 25.713 11.9815 25.713C12.4652 25.7215 12.6943 25.8997 12.7622 26.3664C13.0168 28.1908 13.2713 30.0237 13.5174 31.8481C13.8484 34.2326 14.1708 36.6255 14.5018 39.01C14.5357 39.2306 14.5527 39.4597 14.6036 39.6803C14.7224 40.2913 15.1891 40.6732 15.7152 40.6138C16.3092 40.5459 16.708 40.0707 16.6571 39.4258C16.5807 38.3396 16.4704 37.262 16.3771 36.1843C16.2158 34.4023 16.0631 32.6203 15.9019 30.8299C15.7831 29.4976 15.6728 28.1569 15.554 26.8247C15.5455 26.6974 15.4691 26.5531 15.3843 26.4513C14.4254 25.2294 13.458 24.0159 12.5076 22.794C12.3464 22.5819 12.2022 22.5394 11.9476 22.5988C10.853 22.8789 9.71588 22.3358 9.22372 21.326C8.74004 20.3332 9.01158 19.1197 9.87711 18.4154C10.7511 17.7026 11.99 17.7026 12.8895 18.4154C13.755 19.1028 14.0435 20.3162 13.5429 21.3175C13.3986 21.5975 13.4241 21.7672 13.6193 22.0133C16.3092 25.4076 18.9906 28.8103 21.6721 32.213C21.8503 32.4336 22.037 32.5185 22.317 32.51C23.174 32.493 24.0396 32.5015 24.9305 32.5015C24.9305 32.9428 24.9305 33.3671 24.9305 33.8507C24.1668 33.8507 23.3946 33.8592 22.6225 33.8507C20.9593 33.8338 21.4345 34.0714 20.3907 32.7731C19.3895 31.5342 18.4136 30.2698 17.4293 29.0224C17.3444 28.9121 17.2511 28.8188 17.1068 28.6491C17.2341 30.1001 17.3444 31.4578 17.4632 32.8155C17.616 34.6144 17.7772 36.4134 17.9299 38.2123C17.9724 38.6875 18.0233 39.1712 18.0233 39.6464C18.0233 40.8259 17.0814 41.8527 15.9273 41.9799C14.6799 42.1157 13.5005 41.3096 13.2968 40.1046C13.0337 38.4924 12.8301 36.8716 12.6095 35.2509C12.2785 32.8664 11.9561 30.4735 11.6336 28.089C11.5912 27.7581 11.5403 27.4271 11.4894 27.0962C11.4469 27.0962 11.4045 27.0877 11.3621 27.0877C11.2942 27.495 11.2263 27.9108 11.1669 28.3181C10.7426 31.3899 10.3268 34.4617 9.91105 37.5335C9.80074 38.3736 9.7074 39.2136 9.55466 40.0452C9.32555 41.3011 8.21394 42.1072 6.93261 41.9884C5.72766 41.8781 4.75182 40.8089 4.81122 39.5531C4.88759 38.0087 5.04033 36.4643 5.1761 34.9114C5.32884 33.1379 5.45612 31.3645 5.65977 29.6079C6.06708 26.0185 5.99071 22.4291 5.99071 18.8312C5.99071 18.7294 5.99071 18.6361 5.92283 18.5088C5.86343 18.6361 5.79554 18.7633 5.74463 18.8991C5.26095 20.0532 4.79425 21.2157 4.2936 22.3697C3.8778 23.3286 2.9953 23.8123 1.9346 23.7104C1.0521 23.6341 0.229002 22.9467 0.0508047 22.0133C-0.0340511 21.5806 -0.01708 21.0629 0.135661 20.6556C1.30667 17.6348 2.47768 14.6139 3.74203 11.6354C4.52271 9.80255 6.02465 8.86913 8.03574 8.80974C8.29879 8.80125 8.55336 8.80974 8.8843 8.80974C5.8804 6.64591 6.26225 3.06499 8.12059 1.30847C10.0808 -0.54988 13.2374 -0.41411 14.9939 1.62243C16.7419 3.63352 16.5553 6.92593 13.9332 8.75034ZM14.7733 4.70271C14.7648 2.85285 13.2119 1.31695 11.3621 1.33392C9.5292 1.35089 8.0018 2.88679 8.0018 4.71119C8.0018 6.56954 9.53769 8.09695 11.396 8.10543C13.2374 8.11392 14.7903 6.55257 14.7733 4.70271ZM11.3791 19.2895C10.853 19.2979 10.3862 19.7646 10.3778 20.2908C10.3693 20.8338 10.8614 21.326 11.4045 21.3175C11.9561 21.309 12.4313 20.8169 12.4058 20.2738C12.3888 19.7392 11.9052 19.281 11.3791 19.2895Z" fill="white"/>
<path d="M36.454 8.80133C36.454 10.0572 36.454 11.3131 36.454 12.5689C36.454 13.1375 36.2333 13.392 35.6818 13.4005C34.8502 13.4175 34.0186 13.4175 33.187 13.4005C32.627 13.392 32.3979 13.146 32.3979 12.5859C32.3979 10.0657 32.3979 7.53697 32.3979 5.01675C32.3979 4.4567 32.6355 4.22759 33.1955 4.2191C34.0271 4.2191 34.8587 4.21062 35.6903 4.2191C36.2164 4.2191 36.454 4.46519 36.454 4.99978C36.4625 6.26413 36.454 7.53697 36.454 8.80133ZM35.0708 12.0004C35.0708 9.82808 35.0708 7.70668 35.0708 5.60226C34.6126 5.60226 34.1883 5.60226 33.7725 5.60226C33.7725 7.7576 33.7725 9.879 33.7725 12.0004C34.2223 12.0004 34.6381 12.0004 35.0708 12.0004Z" fill="white"/>
<path d="M19.381 7.81704C19.0076 7.55398 18.6682 7.3079 18.3033 7.05333C18.3712 6.94302 18.4137 6.84119 18.4815 6.75634C19.4998 5.33075 20.5181 3.91366 21.5279 2.48808C21.7739 2.14017 22.0625 1.99591 22.4867 2.0044C23.5474 2.02986 24.5996 2.0044 25.6603 2.02137C25.9319 2.02137 26.0761 1.96197 26.2034 1.69043C26.6616 0.65519 27.7902 0.112111 28.8509 0.366679C29.9965 0.638218 30.7262 1.58861 30.7093 2.7681C30.6838 3.87123 29.8947 4.80465 28.783 5.02527C27.7393 5.23741 26.6532 4.67736 26.1865 3.65061C26.0761 3.41301 25.9573 3.35361 25.7113 3.35361C24.7778 3.3621 23.8529 3.34512 22.9195 3.37058C22.7498 3.37907 22.5207 3.48938 22.4189 3.63363C21.443 4.96587 20.4926 6.3066 19.5338 7.65581C19.4913 7.69824 19.4489 7.74066 19.381 7.81704ZM28.3418 3.70152C28.8679 3.69303 29.3346 3.22633 29.3431 2.69173C29.3431 2.14865 28.8509 1.65649 28.3163 1.67346C27.7648 1.69043 27.2981 2.1826 27.315 2.72568C27.3405 3.26027 27.8157 3.71001 28.3418 3.70152Z" fill="white"/>
<path d="M31.0401 10.5748C31.0401 11.2536 31.0401 11.924 31.0401 12.6028C31.0401 13.1374 30.811 13.3835 30.2679 13.4005C29.4194 13.4174 28.5793 13.4174 27.7307 13.4005C27.2046 13.392 26.9755 13.1289 26.9755 12.5943C26.9755 11.2536 26.9755 9.91289 26.9755 8.58066C26.9755 8.01212 27.2046 7.78301 27.7647 7.77452C28.5963 7.77452 29.4279 7.76604 30.2594 7.77452C30.794 7.77452 31.0316 8.01212 31.0316 8.54671C31.0401 9.22556 31.0401 9.89592 31.0401 10.5748ZM29.6485 12.0004C29.6485 11.0584 29.6485 10.1165 29.6485 9.14919C29.2157 9.14919 28.7914 9.14919 28.3417 9.14919C28.3417 10.1081 28.3417 11.0415 28.3417 12.0004C28.783 12.0004 29.1987 12.0004 29.6485 12.0004Z" fill="white"/>
</svg>
