<svg width="26" height="26" viewBox="0 0 26 26" fill="none" xmlns="http://www.w3.org/2000/svg">
<path d="M18.7477 4.4561L19.7326 2.36782C19.859 2.09972 20.2243 2.09972 20.3507 2.36782L21.3356 4.4561L23.5381 4.79304C23.8208 4.83628 23.9333 5.19983 23.7288 5.4084L22.1353 7.03276L22.5113 9.32757C22.5597 9.62227 22.2641 9.847 22.0113 9.70782L20.0417 8.62375L18.0721 9.70782C17.8192 9.847 17.5237 9.62227 17.572 9.32757L17.948 7.03276L16.3545 5.4084C16.15 5.19983 16.2626 4.83628 16.5452 4.79304L18.7477 4.4561Z" stroke="black" stroke-width="1.5" stroke-linecap="round" stroke-linejoin="round"/>
<path d="M14.0833 2.22024C13.727 2.18486 13.3656 2.16675 13 2.16675C7.01691 2.16675 2.16667 7.01699 2.16667 13.0001C2.16667 14.9733 2.69422 16.8233 3.61597 18.4167L2.70833 23.2917L7.58333 22.3841C9.17678 23.3058 11.0268 23.8334 13 23.8334C18.983 23.8334 23.8333 18.9831 23.8333 13.0001C23.8333 12.6345 23.8152 12.2731 23.7798 11.9167" stroke="black" stroke-width="1.5" stroke-linecap="round" stroke-linejoin="round"/>
</svg>
