<svg width="26" height="26" viewBox="0 0 26 26" fill="none" xmlns="http://www.w3.org/2000/svg">
<path d="M13 16.25C14.795 16.25 16.25 14.795 16.25 13C16.25 11.205 14.795 9.75 13 9.75C11.205 9.75 9.75 11.205 9.75 13C9.75 14.795 11.205 16.25 13 16.25Z" stroke="black" stroke-width="1.5" stroke-linecap="round" stroke-linejoin="round"/>
<path d="M21.2576 11.2618L20.0684 8.39028L21.6667 6.50008L19.5 4.33341L17.6201 5.93994L14.6876 4.73397L14.0132 2.16675H11.8961L11.2115 4.76797L8.34645 5.9757L6.5 4.33341L4.33333 6.50008L5.90782 8.438L4.73688 11.3169L2.16667 11.9167V14.0834L4.76787 14.7935L5.9754 17.6581L4.33333 19.5001L6.5 21.6667L8.44042 20.0854L11.2634 21.2467L11.9167 23.8334H14.0833L14.7382 21.2477L17.6097 20.0585C18.0883 20.4007 19.5 21.6667 19.5 21.6667L21.6667 19.5001L20.0589 17.6036L21.2484 14.7312L23.8332 14.0587L23.8333 11.9167L21.2576 11.2618Z" stroke="black" stroke-width="1.5" stroke-linecap="round" stroke-linejoin="round"/>
</svg>
