<svg width="26" height="26" viewBox="0 0 26 26" fill="none" xmlns="http://www.w3.org/2000/svg">
<path d="M2.16667 17.3333V8.66663C2.16667 5.07677 5.07682 2.16663 8.66667 2.16663H17.3333C20.9232 2.16663 23.8333 5.07677 23.8333 8.66663V17.3333C23.8333 20.9231 20.9232 23.8333 17.3333 23.8333H8.66667C5.07682 23.8333 2.16667 20.9231 2.16667 17.3333Z" stroke="black" stroke-width="1.5"/>
<path d="M6.5 14.0833V11.9167C6.5 10.72 7.47005 9.75 8.66667 9.75H11.9167C13.1133 9.75 14.0833 10.72 14.0833 11.9167V14.0833C14.0833 15.28 13.1133 16.25 11.9167 16.25H8.66667C7.47005 16.25 6.5 15.28 6.5 14.0833Z" stroke="black" stroke-width="1.5"/>
<path d="M18.4599 9.98836L15.1377 12.48C14.7911 12.74 14.7911 13.26 15.1377 13.52L18.4599 16.0117C18.8885 16.3331 19.4999 16.0273 19.4999 15.4917V10.5084C19.4999 9.97273 18.8885 9.66698 18.4599 9.98836Z" stroke="black" stroke-width="1.5" stroke-linecap="round" stroke-linejoin="round"/>
</svg>
